{
  "start_time": "2025-09-02T07:37:24.373421041+08:00",
  "end_time": "2025-09-02T07:37:36.802382+08:00",
  "duration": 12428960959,
  "source_directory": "/var/folders/13/mnd_v68d3h3c__ws8xh9jcr40000gp/T/TestUserInteractionScenario636957236/001",
  "total_files": 2,
  "processed_files": 2,
  "successful_files": 0,
  "failed_files": 2,
  "skipped_files": 0,
  "total_size_before": 33,
  "total_size_after": 0,
  "space_saved": 33,
  "compression_ratio": 100,
  "conversion_mode": "auto+",
  "file_details": [
    {
      "original_path": "/var/folders/13/mnd_v68d3h3c__ws8xh9jcr40000gp/T/TestUserInteractionScenario636957236/001/test_png.png",
      "output_path": "",
      "original_size": 16,
      "output_size": 0,
      "compression_ratio": 0,
      "original_format": ".png",
      "output_format": "",
      "processing_time": 12428862208,
      "method": "image_conversion",
      "success": false,
      "error": "both cjxl and FFmpeg lossless JXL conversion failed: exit status 69, output: ffmpeg version 8.0 Copyright (c) 2000-2025 the FFmpeg developers\n  built with Apple clang version 17.0.0 (clang-1700.0.13.3)\n  configuration: --prefix=/opt/homebrew/Cellar/ffmpeg/8.0 --enable-shared --enable-pthreads --enable-version3 --cc=clang --host-cflags= --host-ldflags='-Wl,-ld_classic' --enable-ffplay --enable-gnutls --enable-gpl --enable-libaom --enable-libaribb24 --enable-libbluray --enable-libdav1d --enable-libharfbuzz --enable-libjxl --enable-libmp3lame --enable-libopus --enable-librav1e --enable-librist --enable-librubberband --enable-libsnappy --enable-libsrt --enable-libssh --enable-libsvtav1 --enable-libtesseract --enable-libtheora --enable-libvidstab --enable-libvmaf --enable-libvorbis --enable-libvpx --enable-libwebp --enable-libx264 --enable-libx265 --enable-libxml2 --enable-libxvid --enable-lzma --enable-libfontconfig --enable-libfreetype --enable-frei0r --enable-libass --enable-libopencore-amrnb --enable-libopencore-amrwb --enable-libopenjpeg --enable-libspeex --enable-libsoxr --enable-libzmq --enable-libzimg --disable-libjack --disable-indev=jack --enable-videotoolbox --enable-audiotoolbox --enable-neon\n  libavutil      60.  8.100 / 60.  8.100\n  libavcodec     62. 11.100 / 62. 11.100\n  libavformat    62.  3.100 / 62.  3.100\n  libavdevice    62.  1.100 / 62.  1.100\n  libavfilter    11.  4.100 / 11.  4.100\n  libswscale      9.  1.100 /  9.  1.100\n  libswresample   6.  1.100 /  6.  1.100\n[png @ 0xc22c90380] Invalid PNG signature 0x66616B6520706E67.\n[image2 @ 0xc22c68000] Could not find codec parameters for stream 0 (Video: png, none): unspecified size\nConsider increasing the value for the 'analyzeduration' (0) and 'probesize' (5000000) options\nInput #0, image2, from '/var/folders/13/mnd_v68d3h3c__ws8xh9jcr40000gp/T/TestUserInteractionScenario636957236/001/test_png.png':\n  Duration: 00:00:00.04, start: 0.000000, bitrate: 3 kb/s\n  Stream #0:0: Video: png, none, 25 fps, 25 tbr, 25 tbn\nStream mapping:\n  Stream #0:0 -\u003e #0:0 (png (native) -\u003e jpegxl (libjxl))\nPress [q] to stop, [?] for help\n[png @ 0xc22c91180] Invalid PNG signature 0x66616B6520706E67.\n[vist#0:0/png @ 0xc2300c300] [dec:png @ 0xc22c64280] Decoding error: Invalid data found when processing input\n[vist#0:0/png @ 0xc2300c300] [dec:png @ 0xc22c64280] Decode error rate 1 exceeds maximum 0.666667\n[vist#0:0/png @ 0xc2300c300] [dec:png @ 0xc22c64280] Task finished with error code: -1145393733 (Error number -1145393733 occurred)\n[vf#0:0 @ 0xc2301c500] Cannot determine format of input 0:0 after EOF\n[vf#0:0 @ 0xc2301c500] Task finished with error code: -1094995529 (Invalid data found when processing input)\n[vist#0:0/png @ 0xc2300c300] [dec:png @ 0xc22c64280] Terminating thread with return code -1145393733 (Error number -1145393733 occurred)\n[vf#0:0 @ 0xc2301c500] Terminating thread with return code -1094995529 (Invalid data found when processing input)\n[vost#0:0/libjxl @ 0xc23028000] [enc:libjxl @ 0xc230141c0] Could not open encoder before EOF\n[vost#0:0/libjxl @ 0xc23028000] Task finished with error code: -22 (Invalid argument)\n[vost#0:0/libjxl @ 0xc23028000] Terminating thread with return code -22 (Invalid argument)\n[out#0/image2 @ 0xc23020240] Nothing was written into output file, because at least one of its streams received no packets.\nframe=    0 fps=0.0 q=0.0 Lsize=       0KiB time=N/A bitrate=N/A speed=N/A elapsed=0:00:00.00    \nConversion failed!\n"
    },
    {
      "original_path": "/var/folders/13/mnd_v68d3h3c__ws8xh9jcr40000gp/T/TestUserInteractionScenario636957236/001/test_image.jpg",
      "output_path": "",
      "original_size": 17,
      "output_size": 0,
      "compression_ratio": 0,
      "original_format": ".jpg",
      "output_format": "",
      "processing_time": 12428901583,
      "method": "image_conversion",
      "success": false,
      "error": "both cjxl and FFmpeg lossless JXL conversion failed: exit status 69, output: ffmpeg version 8.0 Copyright (c) 2000-2025 the FFmpeg developers\n  built with Apple clang version 17.0.0 (clang-1700.0.13.3)\n  configuration: --prefix=/opt/homebrew/Cellar/ffmpeg/8.0 --enable-shared --enable-pthreads --enable-version3 --cc=clang --host-cflags= --host-ldflags='-Wl,-ld_classic' --enable-ffplay --enable-gnutls --enable-gpl --enable-libaom --enable-libaribb24 --enable-libbluray --enable-libdav1d --enable-libharfbuzz --enable-libjxl --enable-libmp3lame --enable-libopus --enable-librav1e --enable-librist --enable-librubberband --enable-libsnappy --enable-libsrt --enable-libssh --enable-libsvtav1 --enable-libtesseract --enable-libtheora --enable-libvidstab --enable-libvmaf --enable-libvorbis --enable-libvpx --enable-libwebp --enable-libx264 --enable-libx265 --enable-libxml2 --enable-libxvid --enable-lzma --enable-libfontconfig --enable-libfreetype --enable-frei0r --enable-libass --enable-libopencore-amrnb --enable-libopencore-amrwb --enable-libopenjpeg --enable-libspeex --enable-libsoxr --enable-libzmq --enable-libzimg --disable-libjack --disable-indev=jack --enable-videotoolbox --enable-audiotoolbox --enable-neon\n  libavutil      60.  8.100 / 60.  8.100\n  libavcodec     62. 11.100 / 62. 11.100\n  libavformat    62.  3.100 / 62.  3.100\n  libavdevice    62.  1.100 / 62.  1.100\n  libavfilter    11.  4.100 / 11.  4.100\n  libswscale      9.  1.100 /  9.  1.100\n  libswresample   6.  1.100 /  6.  1.100\n[mjpeg @ 0x86903c380] No JPEG data found in image\n[image2 @ 0x869034000] Could not find codec parameters for stream 0 (Video: mjpeg, none(bt470bg/unknown/unknown)): unspecified size\nConsider increasing the value for the 'analyzeduration' (0) and 'probesize' (5000000) options\nInput #0, image2, from '/var/folders/13/mnd_v68d3h3c__ws8xh9jcr40000gp/T/TestUserInteractionScenario636957236/001/test_image.jpg':\n  Duration: 00:00:00.04, start: 0.000000, bitrate: 3 kb/s\n  Stream #0:0: Video: mjpeg, none(bt470bg/unknown/unknown), 25 fps, 25 tbr, 25 tbn\nStream mapping:\n  Stream #0:0 -\u003e #0:0 (mjpeg (native) -\u003e jpegxl (libjxl))\nPress [q] to stop, [?] for help\n[mjpeg @ 0x86903ce00] No JPEG data found in image\n[vist#0:0/mjpeg @ 0x86902c300] [dec:mjpeg @ 0x869030280] Error submitting packet to decoder: Invalid data found when processing input\n[vist#0:0/mjpeg @ 0x86902c300] [dec:mjpeg @ 0x869030280] Decode error rate 1 exceeds maximum 0.666667\n[vist#0:0/mjpeg @ 0x86902c300] [dec:mjpeg @ 0x869030280] Task finished with error code: -1145393733 (Error number -1145393733 occurred)\n[vist#0:0/mjpeg @ 0x86902c300] [dec:mjpeg @ 0x869030280] Terminating thread with return code -1145393733 (Error number -1145393733 occurred)\n[vf#0:0 @ 0x868c68500] Cannot determine format of input 0:0 after EOF\n[vf#0:0 @ 0x868c68500] Task finished with error code: -1094995529 (Invalid data found when processing input)\n[vf#0:0 @ 0x868c68500] Terminating thread with return code -1094995529 (Invalid data found when processing input)\n[vost#0:0/libjxl @ 0x868c98000] [enc:libjxl @ 0x868c09810] Could not open encoder before EOF\n[vost#0:0/libjxl @ 0x868c98000] Task finished with error code: -22 (Invalid argument)\n[vost#0:0/libjxl @ 0x868c98000] Terminating thread with return code -22 (Invalid argument)\n[out#0/image2 @ 0x868c0c6c0] Nothing was written into output file, because at least one of its streams received no packets.\nframe=    0 fps=0.0 q=0.0 Lsize=       0KiB time=N/A bitrate=N/A speed=N/A elapsed=0:00:00.00    \nConversion failed!\n"
    }
  ],
  "format_summary": {},
  "system_info": {
    "os": "darwin",
    "arch": "arm64",
    "cpu_cores": 4,
    "concurrency": 4,
    "memory_used_mb": 0
  },
  "errors": [
    {
      "file": "/var/folders/13/mnd_v68d3h3c__ws8xh9jcr40000gp/T/TestUserInteractionScenario636957236/001/test_png.png",
      "error": "both cjxl and FFmpeg lossless JXL conversion failed: exit status 69, output: ffmpeg version 8.0 Copyright (c) 2000-2025 the FFmpeg developers\n  built with Apple clang version 17.0.0 (clang-1700.0.13.3)\n  configuration: --prefix=/opt/homebrew/Cellar/ffmpeg/8.0 --enable-shared --enable-pthreads --enable-version3 --cc=clang --host-cflags= --host-ldflags='-Wl,-ld_classic' --enable-ffplay --enable-gnutls --enable-gpl --enable-libaom --enable-libaribb24 --enable-libbluray --enable-libdav1d --enable-libharfbuzz --enable-libjxl --enable-libmp3lame --enable-libopus --enable-librav1e --enable-librist --enable-librubberband --enable-libsnappy --enable-libsrt --enable-libssh --enable-libsvtav1 --enable-libtesseract --enable-libtheora --enable-libvidstab --enable-libvmaf --enable-libvorbis --enable-libvpx --enable-libwebp --enable-libx264 --enable-libx265 --enable-libxml2 --enable-libxvid --enable-lzma --enable-libfontconfig --enable-libfreetype --enable-frei0r --enable-libass --enable-libopencore-amrnb --enable-libopencore-amrwb --enable-libopenjpeg --enable-libspeex --enable-libsoxr --enable-libzmq --enable-libzimg --disable-libjack --disable-indev=jack --enable-videotoolbox --enable-audiotoolbox --enable-neon\n  libavutil      60.  8.100 / 60.  8.100\n  libavcodec     62. 11.100 / 62. 11.100\n  libavformat    62.  3.100 / 62.  3.100\n  libavdevice    62.  1.100 / 62.  1.100\n  libavfilter    11.  4.100 / 11.  4.100\n  libswscale      9.  1.100 /  9.  1.100\n  libswresample   6.  1.100 /  6.  1.100\n[png @ 0xc22c90380] Invalid PNG signature 0x66616B6520706E67.\n[image2 @ 0xc22c68000] Could not find codec parameters for stream 0 (Video: png, none): unspecified size\nConsider increasing the value for the 'analyzeduration' (0) and 'probesize' (5000000) options\nInput #0, image2, from '/var/folders/13/mnd_v68d3h3c__ws8xh9jcr40000gp/T/TestUserInteractionScenario636957236/001/test_png.png':\n  Duration: 00:00:00.04, start: 0.000000, bitrate: 3 kb/s\n  Stream #0:0: Video: png, none, 25 fps, 25 tbr, 25 tbn\nStream mapping:\n  Stream #0:0 -\u003e #0:0 (png (native) -\u003e jpegxl (libjxl))\nPress [q] to stop, [?] for help\n[png @ 0xc22c91180] Invalid PNG signature 0x66616B6520706E67.\n[vist#0:0/png @ 0xc2300c300] [dec:png @ 0xc22c64280] Decoding error: Invalid data found when processing input\n[vist#0:0/png @ 0xc2300c300] [dec:png @ 0xc22c64280] Decode error rate 1 exceeds maximum 0.666667\n[vist#0:0/png @ 0xc2300c300] [dec:png @ 0xc22c64280] Task finished with error code: -1145393733 (Error number -1145393733 occurred)\n[vf#0:0 @ 0xc2301c500] Cannot determine format of input 0:0 after EOF\n[vf#0:0 @ 0xc2301c500] Task finished with error code: -1094995529 (Invalid data found when processing input)\n[vist#0:0/png @ 0xc2300c300] [dec:png @ 0xc22c64280] Terminating thread with return code -1145393733 (Error number -1145393733 occurred)\n[vf#0:0 @ 0xc2301c500] Terminating thread with return code -1094995529 (Invalid data found when processing input)\n[vost#0:0/libjxl @ 0xc23028000] [enc:libjxl @ 0xc230141c0] Could not open encoder before EOF\n[vost#0:0/libjxl @ 0xc23028000] Task finished with error code: -22 (Invalid argument)\n[vost#0:0/libjxl @ 0xc23028000] Terminating thread with return code -22 (Invalid argument)\n[out#0/image2 @ 0xc23020240] Nothing was written into output file, because at least one of its streams received no packets.\nframe=    0 fps=0.0 q=0.0 Lsize=       0KiB time=N/A bitrate=N/A speed=N/A elapsed=0:00:00.00    \nConversion failed!\n",
      "time": "2025-09-02T07:37:36.802403+08:00"
    },
    {
      "file": "/var/folders/13/mnd_v68d3h3c__ws8xh9jcr40000gp/T/TestUserInteractionScenario636957236/001/test_image.jpg",
      "error": "both cjxl and FFmpeg lossless JXL conversion failed: exit status 69, output: ffmpeg version 8.0 Copyright (c) 2000-2025 the FFmpeg developers\n  built with Apple clang version 17.0.0 (clang-1700.0.13.3)\n  configuration: --prefix=/opt/homebrew/Cellar/ffmpeg/8.0 --enable-shared --enable-pthreads --enable-version3 --cc=clang --host-cflags= --host-ldflags='-Wl,-ld_classic' --enable-ffplay --enable-gnutls --enable-gpl --enable-libaom --enable-libaribb24 --enable-libbluray --enable-libdav1d --enable-libharfbuzz --enable-libjxl --enable-libmp3lame --enable-libopus --enable-librav1e --enable-librist --enable-librubberband --enable-libsnappy --enable-libsrt --enable-libssh --enable-libsvtav1 --enable-libtesseract --enable-libtheora --enable-libvidstab --enable-libvmaf --enable-libvorbis --enable-libvpx --enable-libwebp --enable-libx264 --enable-libx265 --enable-libxml2 --enable-libxvid --enable-lzma --enable-libfontconfig --enable-libfreetype --enable-frei0r --enable-libass --enable-libopencore-amrnb --enable-libopencore-amrwb --enable-libopenjpeg --enable-libspeex --enable-libsoxr --enable-libzmq --enable-libzimg --disable-libjack --disable-indev=jack --enable-videotoolbox --enable-audiotoolbox --enable-neon\n  libavutil      60.  8.100 / 60.  8.100\n  libavcodec     62. 11.100 / 62. 11.100\n  libavformat    62.  3.100 / 62.  3.100\n  libavdevice    62.  1.100 / 62.  1.100\n  libavfilter    11.  4.100 / 11.  4.100\n  libswscale      9.  1.100 /  9.  1.100\n  libswresample   6.  1.100 /  6.  1.100\n[mjpeg @ 0x86903c380] No JPEG data found in image\n[image2 @ 0x869034000] Could not find codec parameters for stream 0 (Video: mjpeg, none(bt470bg/unknown/unknown)): unspecified size\nConsider increasing the value for the 'analyzeduration' (0) and 'probesize' (5000000) options\nInput #0, image2, from '/var/folders/13/mnd_v68d3h3c__ws8xh9jcr40000gp/T/TestUserInteractionScenario636957236/001/test_image.jpg':\n  Duration: 00:00:00.04, start: 0.000000, bitrate: 3 kb/s\n  Stream #0:0: Video: mjpeg, none(bt470bg/unknown/unknown), 25 fps, 25 tbr, 25 tbn\nStream mapping:\n  Stream #0:0 -\u003e #0:0 (mjpeg (native) -\u003e jpegxl (libjxl))\nPress [q] to stop, [?] for help\n[mjpeg @ 0x86903ce00] No JPEG data found in image\n[vist#0:0/mjpeg @ 0x86902c300] [dec:mjpeg @ 0x869030280] Error submitting packet to decoder: Invalid data found when processing input\n[vist#0:0/mjpeg @ 0x86902c300] [dec:mjpeg @ 0x869030280] Decode error rate 1 exceeds maximum 0.666667\n[vist#0:0/mjpeg @ 0x86902c300] [dec:mjpeg @ 0x869030280] Task finished with error code: -1145393733 (Error number -1145393733 occurred)\n[vist#0:0/mjpeg @ 0x86902c300] [dec:mjpeg @ 0x869030280] Terminating thread with return code -1145393733 (Error number -1145393733 occurred)\n[vf#0:0 @ 0x868c68500] Cannot determine format of input 0:0 after EOF\n[vf#0:0 @ 0x868c68500] Task finished with error code: -1094995529 (Invalid data found when processing input)\n[vf#0:0 @ 0x868c68500] Terminating thread with return code -1094995529 (Invalid data found when processing input)\n[vost#0:0/libjxl @ 0x868c98000] [enc:libjxl @ 0x868c09810] Could not open encoder before EOF\n[vost#0:0/libjxl @ 0x868c98000] Task finished with error code: -22 (Invalid argument)\n[vost#0:0/libjxl @ 0x868c98000] Terminating thread with return code -22 (Invalid argument)\n[out#0/image2 @ 0x868c0c6c0] Nothing was written into output file, because at least one of its streams received no packets.\nframe=    0 fps=0.0 q=0.0 Lsize=       0KiB time=N/A bitrate=N/A speed=N/A elapsed=0:00:00.00    \nConversion failed!\n",
      "time": "2025-09-02T07:37:36.802404+08:00"
    }
  ]
}